<?xml version="1.0" standalone="no"?>
<!DOCTYPE svg PUBLIC "-//W3C//DTD SVG 20010904//EN"
 "http://www.w3.org/TR/2001/REC-SVG-20010904/DTD/svg10.dtd">
<svg version="1.0" xmlns="http://www.w3.org/2000/svg"
 width="128.000000pt" height="120.000000pt" viewBox="0 0 128.000000 120.000000"
 preserveAspectRatio="xMidYMid meet">
<metadata>
Created by potrace 1.10, written by Peter Selinger 2001-2011
</metadata>
<g transform="translate(0.000000,120.000000) scale(0.100000,-0.100000)"
fill="#000000" stroke="none">
<path d="M413 1185 c-83 -23 -152 -63 -213 -124 -118 -118 -153 -283 -97 -446
l14 -40 54 4 c30 1 56 5 58 7 2 2 -3 18 -12 37 -50 104 -41 216 23 315 44 68
98 112 111 91 5 -8 9 -22 9 -31 0 -58 54 7 95 115 36 98 39 93 -42 72z m11
-57 c-16 -53 -35 -80 -52 -73 -40 17 -50 15 -89 -17 -55 -44 -108 -126 -123
-189 -12 -49 -9 -137 6 -201 9 -41 -22 -37 -35 5 -29 92 -21 194 22 286 30 65
115 146 189 181 77 37 92 38 82 8z"/>
<path d="M497 1156 c-8 -23 -17 -48 -21 -56 -5 -12 5 -15 57 -17 150 -3 288
-129 313 -283 6 -39 5 -43 -10 -37 -33 13 -66 19 -66 13 0 -19 46 -92 91 -147
60 -71 61 -70 85 44 48 227 -102 456 -331 505 -105 23 -102 23 -118 -22z m218
-54 c65 -33 134 -107 168 -179 26 -57 31 -78 31 -152 1 -47 -2 -94 -7 -105 -7
-18 -8 -18 -28 0 -38 34 -42 51 -18 83 27 36 22 84 -17 166 -48 100 -191 205
-279 205 -28 0 -43 19 -25 30 15 9 120 -19 175 -48z"/>
<path d="M394 908 c-20 -27 -35 -50 -33 -52 9 -6 80 -46 83 -46 2 0 17 23 35
51 26 43 29 54 19 72 -10 20 -10 21 6 8 10 -8 26 -32 37 -53 17 -34 18 -39 4
-44 -30 -12 -14 -19 35 -16 41 3 53 9 68 30 35 50 36 55 15 48 -14 -4 -23 2
-36 24 l-18 30 -90 -1 -89 -2 -36 -49z"/>
<path d="M642 813 l-42 -25 17 -29 c10 -16 27 -41 38 -56 20 -24 23 -25 51
-12 39 19 41 47 7 102 l-29 45 -42 -25z"/>
<path d="M305 807 c17 -13 17 -15 0 -44 -17 -30 -17 -31 10 -77 l27 -47 20 40
c26 53 43 67 63 51 20 -17 19 -7 -5 39 -20 40 -41 51 -99 51 -32 0 -33 -1 -16
-13z"/>
<path d="M557 667 c-26 -43 -27 -50 -14 -65 8 -9 22 -30 30 -47 14 -26 16 -27
17 -9 0 17 8 23 38 28 33 5 41 12 60 51 12 25 22 47 22 48 0 1 -27 0 -59 -1
-56 -3 -60 -2 -63 20 -3 20 -7 17 -31 -25z"/>
<path d="M362 641 c-16 -46 3 -64 77 -69 l61 -4 0 51 0 51 -64 0 c-62 0 -64
-1 -74 -29z"/>
<path d="M810 617 c0 -7 -16 -32 -35 -54 l-35 -41 28 -5 c15 -3 35 -12 46 -20
17 -13 11 -18 -83 -76 -56 -35 -100 -65 -98 -67 2 -3 33 9 69 25 70 31 120 70
168 131 l31 39 -39 41 c-42 43 -52 48 -52 27z m40 -73 c0 -8 -9 -14 -20 -14
-22 0 -26 10 -8 28 13 13 28 7 28 -14z"/>
<path d="M1044 590 c-50 -10 -96 -38 -123 -72 -49 -62 -51 -192 -3 -213 15 -7
22 -18 22 -38 0 -35 20 -75 55 -107 22 -21 37 -25 83 -25 69 0 182 32 182 52
0 20 -39 94 -62 120 -20 21 -20 21 1 50 52 70 80 216 44 227 -37 11 -160 15
-199 6z m149 -26 c37 -7 37 -7 20 -27 -10 -11 -12 -17 -5 -13 23 14 13 -56
-19 -125 l-32 -68 32 -60 c17 -33 31 -63 31 -66 0 -14 -75 -36 -125 -37 -64
-2 -97 17 -114 64 -7 18 -19 48 -27 66 -8 18 -12 37 -9 42 3 4 -3 6 -13 3 -15
-3 -18 3 -20 37 -4 60 24 126 63 150 55 34 138 47 218 34z"/>
<path d="M178 560 c-66 -11 -103 -28 -136 -63 -22 -23 -23 -27 -9 -53 21 -40
51 -65 127 -107 174 -95 279 -89 441 24 46 32 109 73 139 91 l54 32 -33 13
c-42 18 -73 8 -171 -54 -67 -42 -81 -47 -130 -46 -71 2 -164 32 -168 56 -3 15
5 17 71 17 60 0 79 4 101 21 14 11 26 24 26 28 0 7 -146 38 -215 45 -22 3 -66
0 -97 -4z m126 -26 c151 -23 162 -30 60 -40 -52 -5 -94 -25 -94 -44 0 -21 33
-43 85 -55 71 -17 185 -20 185 -4 0 5 4 8 9 5 4 -3 30 9 57 26 54 34 114 62
120 55 7 -7 -180 -125 -242 -154 -84 -38 -161 -31 -281 26 -98 47 -147 87
-141 117 4 22 94 84 122 84 10 0 64 -7 120 -16z"/>
<path d="M390 429 c64 -17 81 -18 115 -7 l40 12 -55 7 c-30 4 -82 7 -115 7
l-60 0 75 -19z"/>
<path d="M685 350 c-107 -42 -165 -69 -165 -76 0 -3 6 -4 14 -1 8 3 74 15 147
27 74 11 145 23 159 26 l25 6 -28 24 c-35 30 -64 29 -152 -6z"/>
<path d="M93 228 c-30 -38 -18 -142 15 -136 9 2 18 11 20 21 2 11 -1 15 -11
11 -19 -7 -30 25 -21 61 4 17 11 24 21 21 10 -4 13 0 11 11 -4 21 -22 27 -35
11z"/>
<path d="M150 221 c-15 -30 -12 -107 5 -121 26 -22 45 5 45 64 0 68 -27 99
-50 57z m34 -37 c8 -29 -1 -64 -15 -64 -5 0 -9 20 -9 45 0 49 14 60 24 19z"/>
<path d="M219 238 c-5 -24 -4 -148 2 -148 4 0 9 12 11 28 l4 27 12 -27 c15
-36 52 -39 52 -4 0 13 7 26 15 30 20 7 20 70 0 86 -25 21 -35 1 -35 -68 -1
-65 -1 -66 -16 -39 -11 20 -12 32 -4 46 13 25 -3 71 -25 71 -8 0 -15 -1 -16
-2z"/>
<path d="M417 234 c-4 -4 -7 -38 -7 -76 0 -66 1 -68 25 -68 16 0 25 6 25 15 0
8 -7 15 -15 15 -18 0 -20 36 -2 44 10 5 10 7 0 12 -18 8 -16 34 3 34 9 0 14 6
12 13 -5 14 -31 21 -41 11z"/>
<path d="M483 228 c-18 -23 -23 -63 -12 -100 8 -32 13 -37 39 -36 18 1 30 6
30 15 0 7 7 13 15 13 8 0 15 -7 15 -15 0 -8 8 -15 19 -15 15 0 19 11 25 65 7
67 2 90 -15 79 -6 -3 -7 -24 -3 -49 3 -24 2 -51 -4 -61 -8 -14 -12 -4 -18 47
-5 35 -13 63 -19 62 -5 -1 -15 -30 -21 -65 -6 -35 -12 -58 -13 -52 0 7 -9 11
-18 10 -20 -1 -28 24 -18 61 4 17 11 23 21 19 11 -4 14 -1 12 11 -4 21 -22 27
-35 11z"/>
<path d="M647 233 c-4 -3 -7 -17 -7 -29 0 -13 -4 -26 -10 -29 -13 -8 -13 -45
-1 -45 5 0 12 10 14 23 2 12 5 3 6 -20 0 -24 5 -43 10 -43 9 0 8 137 -1 145
-3 3 -8 2 -11 -2z"/>
<path d="M708 233 c-2 -5 -4 -37 -3 -73 0 -60 2 -65 23 -68 15 -2 22 2 22 12
0 9 -7 16 -15 16 -8 0 -15 7 -15 15 0 9 7 18 15 21 8 4 15 10 15 15 0 5 -7 9
-15 9 -8 0 -15 7 -15 15 0 8 7 15 15 15 8 0 15 7 15 15 0 15 -36 21 -42 8z"/>
<path d="M802 228 c-19 -19 -15 -66 8 -78 26 -14 26 -34 -1 -27 -15 4 -19 1
-17 -11 2 -9 12 -17 23 -17 16 0 21 8 23 38 2 26 -1 39 -12 43 -9 3 -16 13
-16 21 0 10 6 13 16 9 11 -4 14 -1 12 11 -4 21 -21 26 -36 11z"/>
<path d="M880 165 c0 -43 4 -75 10 -75 6 0 10 11 10 24 0 13 7 26 15 30 18 7
20 67 3 84 -29 29 -38 13 -38 -63z"/>
<path d="M340 160 c0 -40 4 -70 10 -70 6 0 10 12 11 28 l1 27 11 -27 c13 -33
32 -38 22 -5 -4 12 -6 43 -6 70 2 44 0 47 -23 47 -25 0 -26 -2 -26 -70z"/>
<path d="M110 33 c0 -15 7 -19 38 -20 27 0 39 4 39 13 0 8 -7 14 -16 14 -9 0
-26 3 -38 6 -18 5 -23 2 -23 -13z"/>
<path d="M223 42 c-26 -4 -32 -32 -7 -32 8 0 12 5 9 10 -3 6 -1 10 4 10 6 0
11 -4 11 -10 0 -5 11 -10 25 -10 14 0 25 6 25 13 0 8 4 7 10 -3 9 -13 10 -13
10 0 0 11 2 12 8 2 11 -16 62 -12 62 5 0 7 -7 13 -15 13 -8 0 -15 -6 -15 -12
0 -10 -3 -9 -9 1 -6 9 -22 12 -50 9 -22 -2 -42 -1 -43 2 -2 3 -13 4 -25 2z"/>
<path d="M573 43 c-34 -3 -43 -8 -43 -23 0 -13 5 -17 20 -13 11 3 20 10 20 17
0 6 5 4 10 -4 8 -13 13 -13 31 -2 11 8 18 9 14 3 -8 -14 11 -14 37 0 13 7 18
7 14 1 -3 -6 -2 -13 4 -17 5 -3 10 -1 10 5 0 6 4 9 9 6 4 -3 17 1 27 9 17 13
14 14 -33 15 -28 0 -57 1 -65 3 -7 2 -32 2 -55 0z"/>
<path d="M761 33 c-1 -17 5 -23 19 -23 12 0 20 7 20 16 0 10 -6 14 -14 11 -8
-3 -17 -1 -20 6 -2 7 -5 2 -5 -10z"/>
<path d="M844 38 c-3 -5 -10 -6 -15 -3 -5 3 -6 0 -4 -8 4 -8 24 -14 50 -16 36
-1 45 1 45 15 0 10 -5 14 -15 10 -8 -3 -15 -2 -15 2 0 10 -40 10 -46 0z"/>
<path d="M415 30 c20 -7 20 -7 0 -12 -14 -4 -11 -6 11 -7 16 0 35 4 42 11 9 9
12 9 12 0 0 -7 7 -12 15 -12 8 0 15 6 15 13 0 10 -16 14 -57 14 -35 0 -50 -3
-38 -7z"/>
</g>
</svg>
